<svg xmlns="http://www.w3.org/2000/svg" width="891" height="891" viewBox="0 0 891 891"><path fill="#feffff" d="M0 0h891v891H0z"/><defs><linearGradient id="a" x1="57.362" x2="623.773" y1="264.354" y2="376.95" gradientUnits="userSpaceOnUse"><stop offset="0" stop-color="#013479"/><stop offset="1" stop-color="#2189c8"/></linearGradient></defs><path fill="url(#a)" d="M172.556 480.299c-2.277-7.694-6.793-16.915-9.715-24.632-5.059-13.365-10.583-26.759-15.64-40.099-13.012-34.321-23.727-73.105-30.227-109.184-5.978-33.179-8.264-69.004-3.701-102.36 1.636-13.438 4.03-27.287 8.948-39.994 15.224-39.334 44.658-74.557 85.322-88.723 41.956-14.615 89.376-8.478 129.057 10.01 9.24 4.304 18.188 8.134 26.679 13.938 18.766 11.987 35.646 25.746 53.55 38.853 48.915 34.398 86.409 31.077 142.088 21.546 1.278-.293 2.827-.861 3.962-.449 7.719 9.769 25.212 73.587 27.645 87.838.887 3.915 1.695 7.297 2.817 11.169-24.007 5.682-52.904 9.349-77.509 10.747-2.973.169-15.146-.031-16.651 1.428-.672 2.632-.257 5.729-.111 8.54 28.055.823 54.915-1.121 82.381-6.643 5.065-1.019 10.133-2.076 15.212-3.02a1028 1028 0 0 1 11.392 77.243c1.543 13.308 2.659 30.602 4.587 43.161-18.832 1.363-37.845 3.252-56.669 4.129a542 542 0 0 1-63.573-.757c.129 3.7.166 8.131.647 11.743 9.246 1.968 25.779 2.044 35.385 2.059a740 740 0 0 0 84.962-4.402c.151 8.221.201 18.915.965 26.999-3.043.938-4.78 3.115-7.396 4.725-8.536 5.258-24.454 20.004-29.433 28.54.114 1.273-.056.667.773 1.749a20 20 0 0 0-1.668 2.191l.102.406c-.54-.036 6.681-.74 6.265-.63 3.045-.803 6.743-2.206 9.6-3.596l.428.33.024.375c-3.217 1.624-11.389 4.57-15.145 6.054a792 792 0 0 1-50.574 17.665 1049 1049 0 0 1-89.529 23.96c-13.935 2.998-27.341 5.226-41.29 7.733a866 866 0 0 1-73.927 10.499 906 906 0 0 1-93.534 2.549c-34.097-.908-63.37-4.133-96.521-13.162-30.309-7.174-61.312-20.917-83.508-43.17-10.992-11.02-24.009-35.715-23.403-51.553.733-19.203 17.887-51.381 31.785-64.342 2.93-4.608 19.846-19.6 24.7-23.875 1.014 1.855.87 3.744 1.997 4.995 1.1-.571.74-.322 1.601-1.218l.627.245c-9.084 10.072-14.358 16.76-21.259 28.632-.246 1.007-1.676 3.92-2.165 5.022-31.92 71.951 58.566 92.788 109.647 106.736"/><path fill="#2390d0" d="M558.917 159.654c1.278-.293 2.827-.861 3.962-.449 7.719 9.769 25.212 73.587 27.645 87.838l-.442.133c-1.475-.56.208-.999-1.117-2.82l-.632.245c-.281.941.19 2.209.109 2.431-1.884 5.13-7.316 13.048-13.267 13.402-3.896.406-8.299-1.28-12.061-.765-3.417.568-5.089.544-8.379-.776-6.397-2.544-13.931-8.294-17.609-14.075-2.189-3.439-.921-8.346-3.417-12.505.32-.666 1.976-4.135 1.653-4.718-2.282-4.115-6.713-7.078-9.237-11.105-.658-1.049 1.466-4.831 1.265-5.293-.965-2.215-1.971-4.49-2.691-6.827-2.428-6.412-.057-5.833 2.532-10.924-1.012-3.215.33-5.044 2.181-7.941 8.481-13.271 19.765-14.006 33.957-17.128 1.229 1.712.861 1.574 2.513 2.016.923-2.619-2.045-8.992-4.071-10.257a31 31 0 0 1-2.894-.482"/><defs><linearGradient id="b" x1="63.301" x2="79.954" y1="347.85" y2="352.895" gradientUnits="userSpaceOnUse"><stop offset="0" stop-color="#0e1f41"/><stop offset="1" stop-color="#37567d"/></linearGradient></defs><path fill="url(#b)" d="M82.107 335.887c1.015 1.855.872 3.744 1.998 4.995 1.1-.571.74-.322 1.601-1.218l.627.245c-9.084 10.072-14.358 16.76-21.259 28.632-.091-2.525 2.122-5.368 3.458-7.552-1.263-.148-5.473 7.124-9.61 5.762l-.125-.561c.91-.626 1.464-.859 1.99-1.809a51 51 0 0 0-1.455-2.124c.552-1.317 1.15-2.589 1.749-3.884l-.32-.547-.8-.019a34 34 0 0 1-1.844 2.481l-.71-.526c2.93-4.608 19.847-19.6 24.7-23.875"/><defs><linearGradient id="c" x1="184.052" x2="502.386" y1="405.618" y2="189.734" gradientUnits="userSpaceOnUse"><stop offset="0" stop-color="#cfe3f2"/><stop offset="1" stop-color="#fff"/></linearGradient></defs><path fill="url(#c)" d="M460.347 474.502c-21.734 3.677-42.235 7.751-64.345 10.684a820.4 820.4 0 0 1-129.991 6.012c-5.735-.184-21.465.09-25.669-1.658-3.496-3.883-15.967-36.991-19.137-44.301-2.006-4.624-7.696-17.283-9.696-22.192-23.879-58.614-49.444-123.958-49.301-188.095.081-35.858 11.66-80.545 37.915-106.321 45.079-44.256 117.932-26.468 163.895 6.677 21.211 15.295 35.795 30.666 60.315 41.242 28.199 12.163 49.844 11.799 79.645 11.904-5.115 10.531-8.239 26.725-10.808 38.446-12.563 57.324-19.667 115.229-14.701 173.962 1.265 14.961 3.275 29.062 5.603 43.924 1.197 7.646 2.745 16.494 3.282 24.117-3.738.92-7.64 1.705-11.414 2.516-5.002 1.042-10.583 2.335-15.593 3.083"/><path fill="#a4eafe" d="M460.347 474.502c1.291-2.085 1.637-2.24 4.404-2.916 3.656-.894 7.811-2.043 11.189-.167-5.002 1.042-10.583 2.335-15.593 3.083"/><path fill="#085092" d="M784.841 437.647c.294 2.47-1.649 11.458-2.209 14.382-8.99 46.905-23.885 92.264-37.647 137.937-8.308 27.568-15.629 56.53-26.618 83.32-11.85 28.887-25.939 59.83-42.554 86.466-14.36 23.021-38.549 52.414-65.997 59.123-12.36 3.022-25.551 1.138-36.345-6.102a41.8 41.8 0 0 1-11.725-11.765c-16.266-24.496-18.658-71.175-24.5-99.931-5.283-26.004-13.795-63.819-36.811-80.484-7.947-5.753-19.833-6.861-29.352-5.057-10.905 2.066-21.318 11.47-27.348 20.453-2.488 3.705-5.452 10.991-7.261 15.338a236.3 236.3 0 0 0-14.501 49.144c-3.519 18.869-5.424 38.893-9.045 57.884-1.87 9.803-3.207 19.942-6.423 29.479-2.083 6.177-5.951 14.94-9.674 20.314-7.298 10.537-16.45 16.958-29.061 19.396-16.752 3.239-32.672-4.411-46.231-13.554-11.307-7.623-20.363-19.246-28.41-30.179-20.739-28.175-36.886-61.434-50.359-93.642-5.176-12.374-10.004-26.114-14.932-38.77a837 837 0 0 1-17.488-49.114c-3.549-10.85-7.107-20.803-9.154-32.071a1291 1291 0 0 0 56.805 5.431l5.106.345c1.636 12.546 6.535 26.835 9.721 39.315 8.204 32.125 16.286 64.822 28.845 95.585 3.543 8.676 7.713 16.989 11.874 25.375 6.899 13.905 13.446 26.235 23.72 38.103 5.858 6.767 13.746 12.451 22.981 12.909 7.522.373 13.949-2.873 18.321-8.966 17.212-23.992 16.836-97.312 26.093-130.301 6.34-22.593 18.146-44.681 35.857-60.342 24.212-21.409 46.197-21.537 76.558-19.628-.179-5.164-1.138-11.15-1.591-16.459 17.855-4.384 33.841-9.324 51.382-14.528l45.383-13.271c-1.821 13.055-3.132 27.181-4.577 40.338a546 546 0 0 0-31.539-1.064q-13.957-.06-27.909.204c-4.982.076-10.653-.08-15.567.696-4.837.764-3.878 5.311-3.239 8.832 6.866.627 18.083.501 25.289.724 17.165.461 34.317 1.313 51.443 2.556-2.186 19.483-5.184 38.931-8.081 58.322-1.332 8.915-6.981 39.243-5.832 46.236.19 1.151.27 1.803 1.248 2.517.123-.071.257-.127.369-.214 6.252-4.831 21.875-92.419 24.062-104.863 6.453.351 15.853 2.146 22.472 3.261a541 541 0 0 1 61.643 13.778c8.177 2.42 12.419 5.834 22.601 8.229.375-2.097 1.82-8.689 1.537-10.423-2.719-3.359-18.936-8.547-24.008-10.402a655 655 0 0 0 21.768-81.206c1.877-9.252 4.07-18.574 4.598-27.982 1.88-1.788 4.276-3.212 6.504-4.533 16.78-9.954 33.828-19.936 49.808-31.141"/><path fill="#518c39" d="M821.135 227.748c14.315 8.839 35.849 24.638 42.22 40.391 27.029 54.498-16.47 106.168-54.041 141.72-19.519 18.47-43.132 32.368-65.907 46.343-22.748 13.957-46.189 26.006-70.815 36.306-21.69 9.072-43.101 18.783-65.459 26.152-62.028 19.342-126.835 37.201-191.139 46.54a860 860 0 0 1-104.943 7.871c-22.416.25-43.587.031-65.863-2.508-15.071-1.356-30.418-2.65-45.381-4.805-7.209-1.039-16.682-3.421-23.753-5.394-6.596-1.841-17.85-3.853-23.824-6.412-27.126-6.174-60.665-20.991-83.546-36.822-7.552-5.226-13.312-10.226-20.445-15.587l-.344-2.161c.755.143 10.618 8.178 12.189 9.432.601-.879.285-1.275.146-2.666-1.819-2.096-2.322-.518-4.015-2.166l.826-1.056c13.91 12.352 37.284 24.197 54.928 30.639 6.479 2.366 14.331 4.202 20.092 6.401 1.145.045 8.439 1.952 10.016 2.321a519 519 0 0 0 17.509 3.653c14.948 2.82 31.068 4.434 46.257 5.469 91.189 6.217 178.882-4.71 267.243-26.792a896 896 0 0 0 123.801-39.42c10.03-4.079 19.916-8.829 29.791-13.221 37.396-16.634 73.471-35.791 106.974-59.385 12.634-8.898 25.645-17.444 37.385-27.613 1.567-5.046 13.72-14.494 17.815-18.458 1.859-1.8 3.086-2.168 5.503-2.729.221-.19.708-.599.993-.893 17.529-18.121 34.833-39.351 42.87-63.541 1.679-5.054 2.193-11.566 2.344-16.725.408-13.991-3.668-28.17-11.716-39.631-2.647-3.77-7.895-8.901-11.212-12.303-.52-.356-2.105-2.091-2.636-2.648l.684-.265c2.339.351 3.273.679 5.453-.037"/><path fill="#657983" d="m48.239 501.543-.344-2.161c.755.143 10.618 8.178 12.189 9.432.601-.879.285-1.275.146-2.666-1.819-2.096-2.322-.518-4.015-2.166l.826-1.056c13.91 12.352 37.284 24.197 54.928 30.639 6.479 2.366 14.331 4.202 20.092 6.401l-.795-.034c-8.135-.386-16.685-4.988-24.465-7.266-5.492-1.608-15.072-7.818-20.48-7.194.63.645 1.215 1.227 1.87 1.846l-.228.746c2.797 1.386 13.57 7.382 15.926 7.825 12.68 2.385 25.694 9.464 38.32 10.401-3.283.646-2.391.611-5.274-.135-2.996-.775-7.557-1.497-10.635-1.908l-.391.262c2.981 1.646 8.708 3.542 12.078 4.776 3.309 1.212 11.587 2.568 14.243 4.667-27.126-6.174-60.665-20.991-83.546-36.822-7.552-5.226-13.312-10.226-20.445-15.587"/><path fill="#749c56" d="M821.135 227.748c14.315 8.839 35.849 24.638 42.22 40.391-1.844-1.485-4.717-7.146-5.846-7.828-7.542-4.555-30.968-31.745-39.875-29.613-.52-.356-2.105-2.091-2.636-2.648l.684-.265c2.339.351 3.273.679 5.453-.037"/><path fill="#d3dcdd" d="M771.037 384.978c1.567-5.046 13.72-14.494 17.815-18.458 1.859-1.8 3.086-2.168 5.503-2.729-3.878 4.268-18.518 18.125-23.318 21.187"/><defs><linearGradient id="d" x1="556.915" x2="779.807" y1="257.054" y2="164.742" gradientUnits="userSpaceOnUse"><stop offset="0" stop-color="#1165a9"/><stop offset="1" stop-color="#2898cf"/></linearGradient></defs><path fill="url(#d)" d="M567.864 74.61c5.787-2.115 13.132-3.202 19.177-4.644 32.287-7.703 63.963-6.257 95.834 2.059 50.18 13.094 83.986 50.443 100.071 98.666 4.865 14.583 8.928 28.762 11.392 44.086.358 2.018 1.805 8.711 1.735 10.356 5.64 23.934 6.304 59.811 6.156 84.298-.058 9.654-24.592 35.471-33.35 40.814-8.156 6.501-25.392 7.911-28.987 11.293-1.109.928-2.249 1.468-3.716 1.47-2.744-24.817-6.133-51.735-11.21-76.052-4.331-20.738-11.453-42.136-17.935-62.343 10.323-7.464 37.782-27.499 45.056-36.768 6.448 7.814 16.735 32.529 21.137 42.619 2.418 2.415 2.911 8.031 4.913 8.717 1.291-3.722-1.537-6.888-1.257-11.275-.907-5.91-6.346-19.142-8.613-24.879-10.611-26.846-25.051-51.815-47.491-70.647a171.5 171.5 0 0 0-85.07-38.426c-4.023-.576-20.136-2.857-22.509-.035 1.769.952 8.502 1.742 11.512 2.673 8.228 2.544 16.192 4.752 24.245 7.886-6.03 5.009-16.33 11.358-23.06 15.705-3.724-.821-8.775-3.896-12.349-5.736-7.415-3.815-14.854-8.009-22.635-11.041-7.361-2.869-13.824-.575-20.638 2.579 21.446 1.256 25.806 8.173 43.889 20.379-10.016 5.566-35.586 16.351-46.854 18.049-5.377-7.152-10.791-14.537-16.443-21.468-1.775-2.177-2.621-3.234-5.249-3.427-1.411.568-.934.091-1.534 1.424.289 2.823 11.693 23.59 14.014 27.908-11.263 2.582-34.031 6.184-45.08 6.215 2.138-5.276 3.733-11.181 5.721-16.565 1.531-4.148 3.381-8.092 4.849-12.242-1.036-.768-1.278-.616-2.662-.832-3.144 2.532-12.292 2.503-16.239 2.705-21.982 1.128-44.366-1.754-64.601-10.696-3.166-1.318-5.779-2.597-8.852-4.136-8.094-4.032-16.64-9.252-24.441-13.92 7.812.486 15.166 2.754 22.82 3.875 5.708.835 12.932.99 18.758 1.049 29.821.307 56.304-8.6 84.046-18.461 10.621-3.775 24.353-8.974 35.45-11.232"/><path fill="#085092" d="M406.79 99.379c7.812.486 15.166 2.754 22.82 3.875 5.708.835 12.932.99 18.758 1.049 29.821.307 56.304-8.6 84.046-18.461 10.621-3.775 24.353-8.974 35.45-11.232l.423.497c-11.173 3.266-22.666 6.252-33.324 10.98-.611 1.255-.704 1.328-1.677 1.946-10.586 6.724-26.014 13.088-31.475 24.944-1.999 4.34 6.822 9.105 8.793 14.105 2.334-.2 9.536-1.929 10.319-1.656-3.144 2.532-12.292 2.503-16.239 2.705-21.982 1.128-44.366-1.754-64.601-10.696-3.166-1.318-5.779-2.597-8.852-4.136-8.094-4.032-16.64-9.252-24.441-13.92"/><path fill="#486080" d="M431.231 113.299c5.656-2.265 8.14-2.527 8.852 4.136-3.166-1.318-5.779-2.597-8.852-4.136"/><path fill="#085092" d="M801.813 303.88a487 487 0 0 0-3.149-55.179c-.465-4.206-3.119-21.385-2.591-23.568 5.64 23.934 6.304 59.811 6.156 84.298-.058 9.654-24.592 35.471-33.35 40.814-1.107-1.576-.513-9.948-.114-12.044l.963-5.153c-.48 4.575-1.594 10.999-.39 15.328l.505.064c8.051-4.757 24.663-23.766 28.789-32.472 1.226-2.588-5.652-8.342 3.181-12.088"/><path fill="#a4eafe" d="M776.88 227.906c3.237 9.456 6.316 23.156 7.963 33.094a138 138 0 0 0-.035 6.649l-.296-.422.247.496c-1.255-2.227-1.187-3.101-2.708-4.996-1.337-8.872-6.213-23.68-8.827-32.263 2.418 2.415 2.911 8.031 4.913 8.717 1.291-3.722-1.537-6.888-1.257-11.275"/><path fill="#61c1f7" d="M784.843 261c.856 4.156 2.155 11.733 1.214 15.857-1.436-.721-3.468-11.776-4.006-14.13 1.521 1.895 1.453 2.769 2.708 4.996l-.247-.496.296.422a138 138 0 0 1 .035-6.649"/><path fill="#2390d0" d="M695.266 232.326c3.945 2.204 17.305 59.39 18.616 66.007 4.396 22.187 7.142 45.738 9.734 68.21a693 693 0 0 1-86.709 19.309l-12.614 1.523c-.729-18.536-3.49-37.871-5.197-56.402-2.016-21.894-6.304-43.652-9.856-65.364a284 284 0 0 0 50.595-17.053c11.88-5.219 23.438-11.115 35.431-16.23"/><path fill="#2390d0" d="M624.751 135.769c4.417 1.991 11.601 9.321 15.057 12.982a309 309 0 0 1 36.193 46.676c5.31 8.453 9.953 17.207 15.207 25.681-2.438 1.809-9.734 5.156-12.738 6.663-14.261 7.158-28.755 13.821-43.829 19.105-8.647 3.171-19.266 5.697-28.267 7.925-.379-2.499-1.16-5.284-1.822-7.752-6.983-26.011-14.324-51.959-25.05-76.723-1.999-4.614-3.773-9.415-5.556-14.097 8.927-3.8 18.107-7.046 27.097-10.729 7.973-3.267 15.495-7.158 23.708-9.731"/><path fill="#085092" d="M715.235 480.439c2.113 5.691-13.286 61.534-15.631 71.328-1.973 8.237-7.616 20.439-9.093 28.572-14.529-6.414-41.535-10.812-57.398-12.78-4.499-.698-8.533-1.372-13.01-2.292 1.397-13.598 2.03-33.508 5.203-46.41 5.813-3.409 25.693-10.301 33.402-13.608l38.478-16.843c6.036-2.667 11.877-5.764 18.049-7.967"/><path fill="#2390d0" d="M661.828 109.05c4.162.993 12.231 5.848 16.198 7.967 25.639 13.696 56.585 36.872 68.021 64.121-5.438 6.03-26.211 21.395-33.023 26.234-3.664 2.442-7.418 5.103-11.057 7.608-10.323-22.577-28.015-49.376-45.214-67.347-6.124-6.399-13.676-12.508-20.451-18.25 9.679-5.548 17.446-12.785 25.526-20.333"/><defs><linearGradient id="e" x1="640.495" x2="656.809" y1="395.373" y2="438.37" gradientUnits="userSpaceOnUse"><stop offset="0" stop-color="#1a7db3"/><stop offset="1" stop-color="#3396d6"/></linearGradient></defs><path fill="url(#e)" d="M625.463 400.352a789 789 0 0 1 15.38-2.361c29.216-4.223 56.986-13.198 85.466-20.608.53 3.364.91 6.11 1.2 9.497-2.733 2.72-10.421 7.723-13.891 10.034a1707 1707 0 0 1-23.751 15.58c-7.215 4.66-16.755 11.504-24.194 15.401-5.052 3.92-40.371 22.927-45.215 23.908-6.134 3.15-20.657 9.484-27.404 11.726l-.024-.375-.428-.33c-2.857 1.39-6.555 2.793-9.6 3.596.416-.11-6.805.594-6.265.63l-.102-.406a20 20 0 0 1 1.668-2.191c-.829-1.082-.659-.476-.773-1.749 4.979-8.536 20.897-23.282 29.433-28.54 2.616-1.61 4.353-3.787 7.396-4.725a68 68 0 0 0 11.619-2.969c.339-7.614-.323-18.257-.515-26.118"/><path fill="#2390d0" d="m620.458 451.803.074-.504c.984-1.227 2.906-1.792 4.497-2.493-1.312-.641-.941-.144-1.403-1.309 1.472-2.476 3.214-4.068 5.151-5.868 3.349-3.113 23.622-10.831 27.307-10.131l.091 1.082c.474-.065 7.573-4.396 8.803-5.109l.695.424c-5.052 3.92-40.371 22.927-45.215 23.908"/><path fill="#d3dcdd" d="M48.239 501.543c-4.686-3.273-32.148-30.114-28.593-35.4 2.565.202 7.085 5.734 8.871 7.777 8.829 10.103 17.74 19.943 28.125 28.486l.399.52-.826 1.056c1.693 1.648 2.196.07 4.015 2.166.139 1.391.455 1.787-.146 2.666-1.57-1.254-11.434-9.289-12.189-9.432z"/><path fill="#486080" d="M82.107 335.887c3.809-3.612 17.783-13.986 22.583-14.178l.406.502c-.488.948-17.677 16.996-18.763 17.698l-.627-.245c-.86.896-.501.647-1.601 1.218-1.126-1.251-.983-3.14-1.998-4.995"/><path fill="#2390d0" d="M736.176 363.008c1.467-.002 2.607-.542 3.716-1.47.444 4.005 2.594 12.798.377 16-.328.473-2.211 1.77-2.811 2.182-.092-5.14-1.351-12.989-1.282-16.712"/><path fill="#7ea080" d="M814.998 228.05c-2.012-1.554-6.346-6.425-8.042-8.448 5.642 2.524 9.324 4.397 14.179 8.146-2.18.716-3.114.388-5.453.037z"/></svg>