<svg xmlns="http://www.w3.org/2000/svg" width="400" height="400" viewBox="0 0 400 400"><defs><linearGradient id="a" x1="57.045" x2="473.515" y1="264.444" y2="346.418" gradientUnits="userSpaceOnUse"><stop offset="0" stop-color="#01357a"/><stop offset="1" stop-color="#1973b4"/></linearGradient></defs><path fill="url(#a)" d="M172.782 480.308c-8.496-22.909-19.114-46.343-27.292-69.344-17.224-48.443-32.355-104.36-34.226-155.899-2.024-55.721 5.778-103.793 44.67-145.748 48.639-52.182 121.259-50.937 181.919-23.466 41.176 18.646 67.316 48.738 106.896 68.419 20.946 10.416 44.435 12.373 67.545 11.512 18.604-1.791 32.483-3.907 50.73-7.028 4.247 7.164 8.229 19.153 10.869 27.126a663 663 0 0 1 19.17 72.341c-20.789 5.093-40.867 7.597-62.102 9.475-8.61.762-24.415.86-31.958 2.286-.021 2.967-.091 6.071.014 9.024 20.621.181 38.517-.336 59.217-3.039 13.493-1.763 25.289-4.45 38.407-6.757 4.441 24.18 8.076 48.5 10.897 72.922 1.773 15.42 2.821 32.271 5.065 47.434-33.515 2.727-67.4 5.683-100.995 4.264-6.217-.263-13.015-.26-19.178-.792.08 4.23.18 7.548.585 11.788 28.765 4.67 90.579 1.807 120.303-2.325a617 617 0 0 0 .826 27.091 493 493 0 0 0 12.194-3.189c-.46-8.518-.561-17.538-.806-26.107 12.076-1.956 24.879-3.608 36.76-6.238 21.485-4.755 42.726-11.017 64.018-16.621.383 2.889 1.008 6.77 1.211 9.598-10.848 7.999-22.001 15.004-33.156 22.462-20.252 13.542-41.168 26.965-63.157 37.56-15.247 7.347-32.401 14.342-48.185 20.468a975 975 0 0 1-161.043 46.834c-12.017 1.658-25.998 4.771-38.242 6.847a732 732 0 0 1-74.922 9.175c-72.401 4.705-262.988 8.412-282.956-101.665-3.643-20.083 18.275-54.739 32.304-70.138 2.186 1.749 2.211 5.102 1.466 7.669 2.12 1.342 3.936-1.744 7.204-.771-41.5 77.29 50.17 100.915 105.948 114.832m314.679-11.419c-3.504-24.737-8.141-52.205-9.71-76.733-3.103-48.5 2.12-99.547 11.643-147.112 1.659-8.284 8.006-39.98 10.808-46.046.709-3.11 2.382-7.74 3.768-10.627l-11.003-.13c-4.19.035-7.401-.028-11.574-.324-47.635-.158-74.121-17.964-109.676-46.975-30.624-24.988-72.838-40.79-112.664-38.3-69.023 4.316-97.132 73.677-96.935 134.031.199 61.277 23.207 121.439 45.631 177.63 9.344 23.035 19.818 46.028 29.084 69.152 1.208 3.015 3.373 6.953 6.85 6.931 18.842.986 38.162 1.33 56.993 1.184a795.6 795.6 0 0 0 146.831-14.829c13.852-2.354 26.238-4.921 39.954-7.852" transform="scale(.44893)"/><defs><linearGradient id="b" x1="409.717" x2="721.83" y1="342.174" y2="320.562" gradientUnits="userSpaceOnUse"><stop offset="0" stop-color="#146db0"/><stop offset="1" stop-color="#2a97d2"/></linearGradient></defs><path fill="url(#b)" d="M512.294 165.782c18.604-1.791 32.483-3.907 50.73-7.028 4.247 7.164 8.229 19.153 10.869 27.126a663 663 0 0 1 19.17 72.341c-20.789 5.093-40.867 7.597-62.102 9.475-8.61.762-24.415.86-31.958 2.286-.021 2.967-.091 6.071.014 9.024 20.621.181 38.517-.336 59.217-3.039 13.493-1.763 25.289-4.45 38.407-6.757 4.441 24.18 8.076 48.5 10.897 72.922 1.773 15.42 2.821 32.271 5.065 47.434-33.515 2.727-67.4 5.683-100.995 4.264-6.217-.263-13.015-.26-19.178-.792.08 4.23.18 7.548.585 11.788 28.765 4.67 90.579 1.807 120.303-2.325a617 617 0 0 0 .826 27.091 493 493 0 0 0 12.194-3.189c-.46-8.518-.561-17.538-.806-26.107 12.076-1.956 24.879-3.608 36.76-6.238 21.485-4.755 42.726-11.017 64.018-16.621.383 2.889 1.008 6.77 1.211 9.598-10.848 7.999-22.001 15.004-33.156 22.462-20.252 13.542-41.168 26.965-63.157 37.56-15.247 7.347-32.401 14.342-48.185 20.468a975 975 0 0 1-161.043 46.834c-1.925-4.159 7.028-5.567 9.689-6.729.708-1.192.367-1.14-.026-2.965.765-1.236 2.911-5.185 3.08-6.537 1.019-8.11.767-15.492 10.229-18.231 2.896-.838 1.868-1.842 5.243-2.746l-2.688-.41c13.852-2.354 26.238-4.921 39.954-7.852-3.504-24.737-8.141-52.205-9.71-76.733-3.103-48.5 2.12-99.547 11.643-147.112 1.659-8.284 8.006-39.98 10.808-46.046 1.694-1.832 4.461-8.829 4.029-11.182-1.968-1.064-3.305.885-6.828-.581l-.588-1.664c-1.243-.373-1.318-.357-2.409-1.024l.528-1.304c1.654-1.203 2.528-1.539 2.91-3.369l-.503-.742c-1.161-.247-1.447-.299-2.539-.738-.081-1.989-.328-6.498.285-8.234 1.38-.463 2.993-.748 3.57-2.11-.703-.736-.459-.363-.815-1.06 3.016.077 12.263.48 14.452-1.208" transform="scale(.44893)"/><path fill="#085093" d="M216.114 84.362c1.154-.477 3.37-1.069 4.582-.968l.102.237-.4.395c.077.1.228.107.346.154.418.164.264.073.566.328-1.881.015-3.323-.013-5.196-.146"/><path fill="#085093" d="m351.907 196.825.332.133c.113 1.141-.925 5.957-1.187 7.264-3.843 19.24-9.73 38.057-15.463 56.812-3.961 12.962-7.539 27.178-12.519 39.697-5.86 14.68-12.408 28.622-20.818 42.064-8.503 13.589-27.675 33.564-44.786 21.999-12.806-8.656-12.944-34.357-15.956-48.266-2.806-12.958-5.605-29.351-16.908-37.987-3.278-2.406-9.302-3.204-13.132-2.212-9.065 2.349-12.875 9.275-15.97 17.141a108 108 0 0 0-5.88 19.94c-2.631 13.715-3.882 37.871-11.197 48.918-3.154 4.762-7.563 7.968-13.194 9.105-7.045 1.422-14.14-1.561-19.914-5.415-5.592-3.732-9.837-8.932-13.776-14.298-13.516-18.416-21.703-39.574-29.778-60.736a389 389 0 0 1-6.874-19.258c-1.824-5.446-3.429-10.107-4.56-15.727 8.452.881 16.111 1.75 24.663 2.375 1.23.032 1.92.082 3.143.25.835 6.303 2.995 12.44 4.585 18.582 5.07 19.588 9.227 35.963 18.478 54.233 2.727 5.386 5.6 10.703 9.495 15.354 2.76 3.298 6.264 6.258 10.738 6.576 3.457.246 6.413-1.217 8.446-3.998 8.038-10.995 7.56-42.72 11.457-57.215 2.952-10.982 8.272-21.278 16.946-28.85 10.123-8.834 21.169-9.107 33.859-8.215l-.63-7.483c14.168-3.304 29.166-8.785 43.359-12.44-.902 5.988-1.466 12.006-2.08 18.029-3.932-.246-32.012-1.26-34.488.225-.377.227-.658.642-.762 1.066-.18.736-.1 1.79.263 2.45 1.058.49 11.943.554 14.021.627q10.141.398 20.267 1.088c-1.385 12.032-3.285 24.018-5.222 35.968-.344 2.119-1.704 10.194-.613 11.68l.379-.049c3.131-3.296 9.51-39.816 10.741-46.73 3.903.36 8.143 1.164 12.026 1.84 8.71 1.477 17.379 3.431 25.878 5.843 2.078.59 4.198 1.656 6.228 2.44 1.292.497 2.498.9 3.826 1.303l.751-4.866c-3.022-1.994-7.337-3.405-10.799-4.55 1.029-3.696 2.42-7.438 3.44-11.135 3.27-11.825 7.11-25.789 8.434-37.906 1.566-1.507 8.172-5.258 10.401-6.6a279 279 0 0 0 14.35-9.066"/><path fill="#528c3a" d="M362.195 98.52c1.981.952 5.15 2.485 6.787 3.874 4.58 2.313 12.653 9.008 15.577 12.999 5.082 6.317 7.594 16.725 6.546 24.715-2.334 17.81-15.901 32.541-28.408 44.396-6.81 6.456-15.116 11.665-23.037 16.619a328 328 0 0 1-63.01 30.289c-3.005 1.058-6.037 2.019-9.081 2.956-32.363 9.968-64.988 18.315-98.802 21.408a332 332 0 0 1-72.449-.97c-8.349-.972-13.266-2.176-21.354-4.222-13.383-3.387-23.024-6.447-35.225-12.977-.074-.555-.181-.867.07-1.36.543-.433 1.417-.317 2.158-.322 15.784 7.378 32.605 10.36 49.856 11.557 41.134 2.855 80.337-2.023 120.27-11.911a395 395 0 0 0 53.94-17.026c8.307-3.314 18.127-7.872 26.209-11.791a269.6 269.6 0 0 0 39.665-23.342c4.935-3.438 9.55-6.596 14.068-10.56 1.406-3.063 7.126-8.46 10.228-9.5 1.634-.96 4.852-4.728 6.2-6.341 6.49-7.76 13.765-17.344 14.818-27.662.726-7.104-1.083-14.729-5.363-20.43-1.04-1.386-2.252-2.57-3.352-3.906-.548-.474-1.241-1.226-1.766-1.76z"/><path fill="#6f9955" d="M362.195 98.52c1.981.952 5.15 2.485 6.787 3.874 4.58 2.313 12.653 9.008 15.577 12.999-.261.33-.139.211-.57.382-2.62-.623-12.051-12.69-15.54-11.467l.057.705c-.548-.474-1.241-1.226-1.766-1.76z"/><path fill="#528c3a" d="M362.195 98.52c1.981.952 5.15 2.485 6.787 3.874l-.277.263c.448.332.785.544 1.253.833v.21c-.712-.103-2.728-.24-3.218-.447z"/><path fill="#d8dadb" d="M356.203 163.351c-.696 1.664-8.494 8.542-10.228 9.5 1.406-3.062 7.126-8.459 10.228-9.5"/><defs><linearGradient id="c" x1="557.767" x2="779.624" y1="256.746" y2="164.081" gradientUnits="userSpaceOnUse"><stop offset="0" stop-color="#1265aa"/><stop offset="1" stop-color="#2898cf"/></linearGradient></defs><path fill="url(#c)" d="M529.577 86.714c57.422-21.418 117.631-32.489 175.85-6.778 82.041 36.23 97.209 144.699 96.89 223.665.033 5.964.293 7.911-2.757 13.197-5.961 10.237-19.676 25.622-29.474 32.459l-1.342 1.002c-7.3 4.614-11.672 5.64-20.061 7.812-1.897.492-7.481 2.084-9.038 2.989-1.839.595-2.745.696-3.298 2.743-3.506-27.111-6.018-54.183-12.204-80.954-4.358-18.858-10.753-39.77-17.034-58.191 2.309-1.921 5.097-3.867 7.543-5.657 13.297-9.728 25.857-19.396 37.561-31.024 7.356 9.104 17.054 33.984 22.72 45.521l3.595 6.169-.79-7.459c-.642-1.309-2.175-9.102-2.848-11.312-16.822-55.239-51.5-100.441-107.648-119.004-17.462-5.773-38.905-11.544-55.461-8.423 2.295.625 4.614 1.144 6.931 1.677 10.337 2.378 20.345 5.843 30.384 9.237-6.237 5.003-16.56 11.677-23.489 15.677-6.917-1.815-22.225-11.747-30.51-15.014-11.194-4.415-14.007-3.507-25.078.8 21.73 2.155 26.639 7.656 44.14 20.68-16.371 7.875-29.033 13.479-46.703 17.957-6.669-7.969-12.11-17.056-19.371-24.47-.765-.781-2.994-.239-3.879.43.09 3.44 11.518 24.016 13.914 28.517-15.769 3.102-28.854 5.315-44.917 6.018 1.279-3.821 10.199-27.959 9.616-29.154-3.762.211-7.17 1.62-11.211 1.888l-1.237-.435c-1.352-3.467-6.81-8.114-9.148-12.677 5.238-12.685 15.79-15.886 25.984-23.447 1.491-1.106.278-2.072 2.37-4.439" transform="scale(.44893)"/><path fill="#a1eafe" d="M349.153 104.246c1.409 3.168 3.15 11.611 3.456 15.157-.116.175-.023.056-.361.273-.535-.298-.537-.482-.894-1.053-.531-2.17-3.492-12.69-3.46-13.798l1.614 2.77z"/><path fill="#085093" d="M358.95 142.221c-1.235-2.743-1.823-4.46 1.237-5.924.015 2.677.132 3.551-1.237 5.924"/><path fill="#66c7fc" d="M351.354 118.623c.357.571.359.755.894 1.053.338-.217.245-.098.361-.273.422 1.219.357 3.968.34 5.349-.85-2.21-1.223-3.794-1.595-6.13"/><path fill="#085093" d="M345.115 157.243c-.33-1.141-.468-5.813.303-6.597.325.945-.875 4.58.3 6.147z"/><path fill="#2290d0" d="m311.983 104.466.366.166c1.332 2.011 2.456 7.012 3.206 9.463 5.106 16.68 7.156 33.162 9.35 50.402-2.474.839-6.817 1.904-9.435 2.576-9.484 2.434-19.687 4.684-29.379 6.034-1.882.318-3.832.507-5.77.825-1.618-19.047-3.11-35.747-6.867-54.66a129.7 129.7 0 0 0 20.923-6.916c5.882-2.512 11.694-5.5 17.606-7.89"/><path fill="#2290d0" d="M280.348 60.928c1.118.365 2.672 1.716 3.535 2.545 9.836 9.443 17.833 20.775 24.549 32.6.547.964 1.342 2.046 1.385 3.165-1.126 1.913-21.966 10.442-25.096 11.589-3.724 1.294-8.63 2.698-12.497 3.407-1.566-6.845-3.62-13.626-5.644-20.345-2.46-8.176-5.763-15.884-8.97-23.775.98-.478 2.359-1.01 3.415-1.374 6.537-2.261 12.862-5.456 19.323-7.812"/><path fill="#085093" d="m320.727 215.823.265-.018.221.214c.112 2.356-1.097 7.099-1.66 9.568a530 530 0 0 1-5.788 23.023c-1.076 3.905-2.758 7.701-3.793 11.745-9.616-3.404-15.324-3.825-24.987-5.512-2.007-.188-4.53-.68-6.554-1.02.284-5.748 1.149-15.419 2.252-20.89 3.252-1.886 12.1-4.917 16.138-6.625a537 537 0 0 0 13.627-5.966c3.33-1.509 6.9-3.242 10.279-4.52"/><path fill="#2290d0" d="M297.061 48.99c.573.037 1.379.404 1.908.656 12.421 5.9 30.91 18.444 35.862 31.672-3.927 3.917-9.906 8.181-14.431 11.543-1.79 1.14-3.385 2.392-5.274 3.47-6.61-14.423-16.94-28.398-29.48-38.216 4.934-3.135 7.215-5.394 11.415-9.125"/><path fill="#085093" d="M182.182 44.37c3.854.596 7.907 1.595 11.735 2.013 15.888 1.736 29.1-2.254 43.828-7.454-.939 1.063-.394 1.496-1.064 1.993-4.576 3.394-9.313 4.831-11.665 10.526 1.05 2.048 3.5 4.135 4.107 5.691l.555.195c-11.123.851-21.715-.137-32.095-4.601-1.384-.576-2.556-1.157-3.9-1.828-2.746-1.041-8.757-4.851-11.501-6.534"/><path fill="#496082" d="M193.684 50.905c2.438-.993 3.364-1.022 3.899 1.828-1.384-.576-2.556-1.157-3.9-1.828"/><defs><linearGradient id="d" x1="59.585" x2="83.742" y1="352.292" y2="350.662" gradientUnits="userSpaceOnUse"><stop offset="0" stop-color="#15284c"/><stop offset="1" stop-color="#33537d"/></linearGradient></defs><path fill="url(#d)" d="M58.164 358.578c3.867-5.443 18.356-18.079 23.777-22.707.725 2.302.978 4.286 2.964 5.539-7.326 8.527-12.01 14.543-18.07 24.066-3.27-.973-5.085 2.113-7.204.771.744-2.567.719-5.92-1.467-7.669" transform="scale(.44893)"/><path fill="#667980" d="M25.275 225.853c1.125.463 2.309 1.45 3.292 2.195 4.168 3.159 8.723 5.547 13.4 7.877-.741.005-1.615-.11-2.159.322-.25.493-.143.805-.07 1.36-4.098-2.158-9.765-5.799-13.247-8.82l.445-.56.128-.114c.147-1.28-1.323-1.08-1.789-2.26"/><path fill="#496082" d="M36.786 150.784c2.312-1.871 6.879-5.527 9.687-6.194l.252.15c-.553 1.395-6.972 6.724-8.608 8.53-.892-.562-1.005-1.453-1.331-2.486"/><path fill="#2290d0" d="M330.571 163.324c.248-.92.655-.965 1.48-1.232.36 2.053 1.617 6.78-.625 8.025l-.251-.136c-.418-1.914-.434-4.622-.604-6.657"/><path fill="#d8dadb" fill-opacity=".18" d="M21.299 224.594c-1.385-1.24-8.2-7.46-8.539-8.723 1.842.363 5.128 3.811 6.501 5.253.623.653 1.328 2.175 2.273 3.142z"/><path fill="#496082" fill-opacity=".949" d="M21.534 224.266a50 50 0 0 1 2.935 2.152c.807.634 1.585 1.29 2.467 1.81l-.445.558c-1.593-1.43-3.46-2.574-5.192-4.192z"/><path fill="#d8dadb" fill-opacity=".012" d="m24.469 226.418.44-.663.366.098c.466 1.18 1.936.98 1.789 2.26l-.128.114c-.882-.519-1.66-1.175-2.467-1.81"/></svg>